<svg width="157" height="157" viewBox="0 0 157 157" fill="none" xmlns="http://www.w3.org/2000/svg">
<path d="M139.36 0H17.6404C7.8979 0 0 7.8979 0 17.6404V139.36C0 149.102 7.8979 157 17.6404 157H139.36C149.102 157 157 149.102 157 139.36V17.6404C157 7.8979 149.102 0 139.36 0Z" fill="#C84343"/>
<path d="M99.5169 14H57.4831C33.4681 14 14 33.4681 14 57.4831V99.5169C14 123.532 33.4681 143 57.4831 143H99.5169C123.532 143 143 123.532 143 99.5169V57.4831C143 33.4681 123.532 14 99.5169 14Z" fill="#AC3B3B"/>
<path opacity="0.6" d="M42.6575 76.8392C44.0391 77.246 45.1214 77.9311 45.9043 78.8946C46.6872 79.8366 47.0787 81.0035 47.0787 82.3952C47.0787 84.3649 46.2497 85.8851 44.5918 86.9556C42.9568 88.0047 40.562 88.5293 37.4072 88.5293H24.9034V66.0483H36.7164C39.6639 66.0483 41.9206 66.5728 43.4864 67.6219C45.0753 68.6711 45.8698 70.0949 45.8698 71.8933C45.8698 72.9853 45.5819 73.9595 45.0062 74.8159C44.4536 75.6723 43.6707 76.3467 42.6575 76.8392ZM30.4645 69.9664V75.2655H36.0256C37.4072 75.2655 38.455 75.0407 39.1688 74.5911C39.8827 74.1414 40.2396 73.4777 40.2396 72.5999C40.2396 71.7221 39.8827 71.069 39.1688 70.6408C38.455 70.1912 37.4072 69.9664 36.0256 69.9664H30.4645ZM36.9928 84.6112C38.4665 84.6112 39.5718 84.3864 40.3087 83.9367C41.0686 83.4871 41.4485 82.7913 41.4485 81.8492C41.4485 79.9865 39.9633 79.0551 36.9928 79.0551H30.4645V84.6112H36.9928ZM69.1382 79.9544C69.1382 80.0186 69.1036 80.4682 69.0345 81.3032H54.9764C55.2297 82.3738 55.8284 83.2195 56.7725 83.8404C57.7166 84.4613 58.891 84.7717 60.2957 84.7717C61.2628 84.7717 62.1148 84.6433 62.8517 84.3864C63.6116 84.108 64.314 83.6798 64.9587 83.1017L67.8256 85.9921C66.0755 87.8549 63.5195 88.7862 60.1575 88.7862C58.062 88.7862 56.2084 88.4115 54.5964 87.6622C52.9845 86.8914 51.7411 85.8316 50.866 84.4827C49.991 83.1338 49.5535 81.603 49.5535 79.8902C49.5535 78.1987 49.9795 76.6786 50.8315 75.3297C51.7065 73.9595 52.8924 72.8996 54.3892 72.1503C55.909 71.3795 57.6015 70.9941 59.4667 70.9941C61.2859 70.9941 62.9323 71.3581 64.4061 72.086C65.8798 72.814 67.0312 73.8631 67.8602 75.2334C68.7122 76.5822 69.1382 78.1559 69.1382 79.9544ZM59.5013 74.7838C58.2808 74.7838 57.2561 75.1049 56.4271 75.7472C55.5981 76.3895 55.0915 77.2674 54.9073 78.3807H64.0607C63.8764 77.2888 63.3698 76.4217 62.5409 75.7793C61.7119 75.1156 60.6987 74.7838 59.5013 74.7838ZM90.9284 79.9544C90.9284 80.0186 90.8938 80.4682 90.8247 81.3032H76.7669C77.0202 82.3738 77.6189 83.2195 78.563 83.8404C79.5071 84.4613 80.6815 84.7717 82.0862 84.7717C83.0533 84.7717 83.905 84.6433 84.6419 84.3864C85.4018 84.108 86.1041 83.6798 86.7489 83.1017L89.6158 85.9921C87.8657 87.8549 85.3097 88.7862 81.948 88.7862C79.8525 88.7862 77.9988 88.4115 76.3869 87.6622C74.775 86.8914 73.5315 85.8316 72.6565 84.4827C71.7815 83.1338 71.344 81.603 71.344 79.8902C71.344 78.1987 71.77 76.6786 72.622 75.3297C73.497 73.9595 74.6829 72.8996 76.1797 72.1503C77.6995 71.3795 79.392 70.9941 81.2572 70.9941C83.0764 70.9941 84.7225 71.3581 86.1963 72.086C87.67 72.814 88.8214 73.8631 89.6503 75.2334C90.5024 76.5822 90.9284 78.1559 90.9284 79.9544ZM81.2917 74.7838C80.0713 74.7838 79.0466 75.1049 78.2176 75.7472C77.3886 76.3895 76.882 77.2674 76.6978 78.3807H85.8508C85.6666 77.2888 85.16 76.4217 84.331 75.7793C83.5021 75.1156 82.4892 74.7838 81.2917 74.7838ZM105.362 66.0483C107.504 66.0483 109.357 66.3801 110.923 67.0439C112.512 67.7076 113.733 68.6497 114.585 69.87C115.437 71.0904 115.863 72.5357 115.863 74.2057C115.863 75.8543 115.437 77.2995 114.585 78.5413C113.733 79.7617 112.512 80.7038 110.923 81.3675C109.357 82.0098 107.504 82.331 105.362 82.331H100.492V88.5293H94.8962V66.0483H105.362ZM105.051 78.0917C106.732 78.0917 108.01 77.7598 108.885 77.0961C109.76 76.411 110.198 75.4475 110.198 74.2057C110.198 72.9425 109.76 71.979 108.885 71.3153C108.01 70.6301 106.732 70.2876 105.051 70.2876H100.492V78.0917H105.051ZM124.624 73.5312C125.268 72.6962 126.132 72.0646 127.214 71.6364C128.32 71.2082 129.586 70.9941 131.014 70.9941V75.6188C130.415 75.5759 130.012 75.5545 129.805 75.5545C128.262 75.5545 127.053 75.9613 126.178 76.7749C125.303 77.5671 124.866 78.7661 124.866 80.3719V88.5293H119.477V71.251H124.624V73.5312Z" fill="white"/>
<path d="M42.6575 109.781C44.0391 110.246 45.1214 111.029 45.9043 112.13C46.6872 113.206 47.0787 114.54 47.0787 116.13C47.0787 118.382 46.2497 120.119 44.5918 121.342C42.9568 122.541 40.562 123.141 37.4072 123.141H24.9034V97.4483H36.7164C39.6639 97.4483 41.9206 98.0478 43.4864 99.2468C45.0753 100.446 45.8698 102.073 45.8698 104.128C45.8698 105.376 45.5819 106.49 45.0062 107.468C44.4536 108.447 43.6707 109.218 42.6575 109.781ZM30.4645 101.926V107.982H36.0256C37.4072 107.982 38.455 107.725 39.1688 107.211C39.8827 106.698 40.2396 105.939 40.2396 104.936C40.2396 103.933 39.8827 103.186 39.1688 102.697C38.455 102.183 37.4072 101.926 36.0256 101.926H30.4645ZM36.9928 118.663C38.4665 118.663 39.5718 118.406 40.3087 117.892C41.0686 117.378 41.4485 116.583 41.4485 115.506C41.4485 113.378 39.9633 112.313 36.9928 112.313H30.4645V118.663H36.9928ZM69.1382 113.341C69.1382 113.414 69.1036 113.928 69.0345 114.883H54.9764C55.2297 116.106 55.8284 117.073 56.7725 117.782C57.7166 118.492 58.891 118.847 60.2957 118.847C61.2628 118.847 62.1148 118.7 62.8517 118.406C63.6116 118.088 64.314 117.599 64.9587 116.938L67.8256 120.241C66.0755 122.37 63.5195 123.434 60.1575 123.434C58.062 123.434 56.2084 123.006 54.5964 122.15C52.9845 121.269 51.7411 120.058 50.866 118.516C49.991 116.975 49.5535 115.225 49.5535 113.268C49.5535 111.334 49.9795 109.597 50.8315 108.056C51.7065 106.49 52.8924 105.278 54.3892 104.422C55.909 103.541 57.6015 103.101 59.4667 103.101C61.2859 103.101 62.9323 103.517 64.4061 104.349C65.8798 105.181 67.0312 106.38 67.8602 107.946C68.7122 109.487 69.1382 111.286 69.1382 113.341ZM59.5013 107.432C58.2808 107.432 57.2561 107.799 56.4271 108.533C55.5981 109.267 55.0915 110.27 54.9073 111.542H64.0607C63.8764 110.295 63.3698 109.304 62.5409 108.569C61.7119 107.811 60.6987 107.432 59.5013 107.432ZM90.9284 113.341C90.9284 113.414 90.8938 113.928 90.8247 114.883H76.7669C77.0202 116.106 77.6189 117.073 78.563 117.782C79.5071 118.492 80.6815 118.847 82.0862 118.847C83.0533 118.847 83.905 118.7 84.6419 118.406C85.4018 118.088 86.1041 117.599 86.7489 116.938L89.6158 120.241C87.8657 122.37 85.3097 123.434 81.948 123.434C79.8525 123.434 77.9988 123.006 76.3869 122.15C74.775 121.269 73.5315 120.058 72.6565 118.516C71.7815 116.975 71.344 115.225 71.344 113.268C71.344 111.334 71.77 109.597 72.622 108.056C73.497 106.49 74.6829 105.278 76.1797 104.422C77.6995 103.541 79.392 103.101 81.2572 103.101C83.0764 103.101 84.7225 103.517 86.1963 104.349C87.67 105.181 88.8214 106.38 89.6503 107.946C90.5024 109.487 90.9284 111.286 90.9284 113.341ZM81.2917 107.432C80.0713 107.432 79.0466 107.799 78.2176 108.533C77.3886 109.267 76.882 110.27 76.6978 111.542H85.8508C85.6666 110.295 85.16 109.304 84.331 108.569C83.5021 107.811 82.4892 107.432 81.2917 107.432ZM105.362 97.4483C107.504 97.4483 109.357 97.8275 110.923 98.5861C112.512 99.3446 113.733 100.421 114.585 101.816C115.437 103.211 115.863 104.862 115.863 106.771C115.863 108.655 115.437 110.307 114.585 111.726C113.733 113.121 112.512 114.197 110.923 114.956C109.357 115.69 107.504 116.057 105.362 116.057H100.492V123.141H94.8962V97.4483H105.362ZM105.051 111.212C106.732 111.212 108.01 110.833 108.885 110.074C109.76 109.291 110.198 108.19 110.198 106.771C110.198 105.327 109.76 104.226 108.885 103.468C108.01 102.685 106.732 102.293 105.051 102.293H100.492V111.212H105.051ZM124.624 106C125.268 105.046 126.132 104.324 127.214 103.835C128.32 103.345 129.586 103.101 131.014 103.101V108.386C130.415 108.337 130.012 108.313 129.805 108.313C128.262 108.313 127.053 108.777 126.178 109.707C125.303 110.613 124.866 111.983 124.866 113.818V123.141H119.477V103.394H124.624V106Z" fill="white"/>
<path opacity="0.2" d="M42.6575 43.7875C44.0391 44.2137 45.1214 44.9314 45.9043 45.9408C46.6872 46.9277 47.0787 48.1501 47.0787 49.6081C47.0787 51.6716 46.2497 53.2642 44.5918 54.3857C42.9568 55.4847 40.562 56.0343 37.4072 56.0343H24.9034V32.4828H36.7164C39.6639 32.4828 41.9206 33.0323 43.4864 34.1314C45.0753 35.2304 45.8698 36.722 45.8698 38.6062C45.8698 39.7501 45.5819 40.7707 45.0062 41.6679C44.4536 42.5651 43.6707 43.2716 42.6575 43.7875ZM30.4645 36.5875V42.1389H36.0256C37.4072 42.1389 38.455 41.9034 39.1688 41.4323C39.8827 40.9613 40.2396 40.266 40.2396 39.3463C40.2396 38.4267 39.8827 37.7426 39.1688 37.294C38.455 36.823 37.4072 36.5875 36.0256 36.5875H30.4645ZM36.9928 51.9296C38.4665 51.9296 39.5718 51.6941 40.3087 51.223C41.0686 50.752 41.4485 50.023 41.4485 49.0361C41.4485 47.0847 39.9633 46.109 36.9928 46.109H30.4645V51.9296H36.9928ZM69.1382 47.0511C69.1382 47.1183 69.1036 47.5894 69.0345 48.4642H54.9764C55.2297 49.5857 55.8284 50.4716 56.7725 51.1221C57.7166 51.7726 58.891 52.0978 60.2957 52.0978C61.2628 52.0978 62.1148 51.9632 62.8517 51.6941C63.6116 51.4025 64.314 50.9539 64.9587 50.3483L67.8256 53.3763C66.0755 55.3277 63.5195 56.3034 60.1575 56.3034C58.062 56.3034 56.2084 55.9109 54.5964 55.1259C52.9845 54.3184 51.7411 53.2081 50.866 51.795C49.991 50.3819 49.5535 48.7782 49.5535 46.9838C49.5535 45.2118 49.9795 43.6193 50.8315 42.2062C51.7065 40.7707 52.8924 39.6604 54.3892 38.8753C55.909 38.0678 57.6015 37.6641 59.4667 37.6641C61.2859 37.6641 62.9323 38.0454 64.4061 38.808C65.8798 39.5706 67.0312 40.6697 67.8602 42.1052C68.7122 43.5183 69.1382 45.1669 69.1382 47.0511ZM59.5013 41.6342C58.2808 41.6342 57.2561 41.9707 56.4271 42.6436C55.5981 43.3165 55.0915 44.2361 54.9073 45.4025H64.0607C63.8764 44.2585 63.3698 43.3501 62.5409 42.6772C61.7119 41.9819 60.6987 41.6342 59.5013 41.6342ZM90.9284 47.0511C90.9284 47.1183 90.8938 47.5894 90.8247 48.4642H76.7669C77.0202 49.5857 77.6189 50.4716 78.563 51.1221C79.5071 51.7726 80.6815 52.0978 82.0862 52.0978C83.0533 52.0978 83.905 51.9632 84.6419 51.6941C85.4018 51.4025 86.1041 50.9539 86.7489 50.3483L89.6158 53.3763C87.8657 55.3277 85.3097 56.3034 81.948 56.3034C79.8525 56.3034 77.9988 55.9109 76.3869 55.1259C74.775 54.3184 73.5315 53.2081 72.6565 51.795C71.7815 50.3819 71.344 48.7782 71.344 46.9838C71.344 45.2118 71.77 43.6193 72.622 42.2062C73.497 40.7707 74.6829 39.6604 76.1797 38.8753C77.6995 38.0678 79.392 37.6641 81.2572 37.6641C83.0764 37.6641 84.7225 38.0454 86.1963 38.808C87.67 39.5706 88.8214 40.6697 89.6503 42.1052C90.5024 43.5183 90.9284 45.1669 90.9284 47.0511ZM81.2917 41.6342C80.0713 41.6342 79.0466 41.9707 78.2176 42.6436C77.3886 43.3165 76.882 44.2361 76.6978 45.4025H85.8508C85.6666 44.2585 85.16 43.3501 84.331 42.6772C83.5021 41.9819 82.4892 41.6342 81.2917 41.6342ZM105.362 32.4828C107.504 32.4828 109.357 32.8304 110.923 33.5258C112.512 34.2211 113.733 35.208 114.585 36.4865C115.437 37.765 115.863 39.2791 115.863 41.0286C115.863 42.7557 115.437 44.2697 114.585 45.5707C113.733 46.8492 112.512 47.8361 110.923 48.5314C109.357 49.2043 107.504 49.5408 105.362 49.5408H100.492V56.0343H94.8962V32.4828H105.362ZM105.051 45.0996C106.732 45.0996 108.01 44.752 108.885 44.0567C109.76 43.3389 110.198 42.3295 110.198 41.0286C110.198 39.7052 109.76 38.6959 108.885 38.0005C108.01 37.2828 106.732 36.9239 105.051 36.9239H100.492V45.0996H105.051ZM124.624 40.3221C125.268 39.4473 126.132 38.7856 127.214 38.337C128.32 37.8884 129.586 37.6641 131.014 37.6641V42.509C130.415 42.4641 130.012 42.4417 129.805 42.4417C128.262 42.4417 127.053 42.8679 126.178 43.7202C125.303 44.5501 124.866 45.8062 124.866 47.4884V56.0343H119.477V37.9333H124.624V40.3221Z" fill="white"/>
</svg>
