<svg width="157" height="157" viewBox="0 0 157 157" fill="none" xmlns="http://www.w3.org/2000/svg">
<path d="M139.36 0H17.6404C7.8979 0 0 7.8979 0 17.6404V139.36C0 149.102 7.8979 157 17.6404 157H139.36C149.102 157 157 149.102 157 139.36V17.6404C157 7.8979 149.102 0 139.36 0Z" fill="#C84343"/>
<path d="M104.079 0H52.9213C23.6937 0 0 23.6937 0 52.9213V104.079C0 133.306 23.6937 157 52.9213 157H104.079C133.306 157 157 133.306 157 104.079V52.9213C157 23.6937 133.306 0 104.079 0Z" fill="#AC3B3B"/>
<path opacity="0.6" d="M38.7434 76.8644C40.2798 77.3117 41.4834 78.065 42.354 79.1243C43.2247 80.1601 43.66 81.443 43.66 82.9732C43.66 85.1389 42.7381 86.8103 40.8944 87.9873C39.0763 89.1408 36.4131 89.7175 32.9049 89.7175H19V65H32.1366C35.4144 65 37.9239 65.5767 39.6652 66.7302C41.4321 67.8837 42.3156 69.4492 42.3156 71.4266C42.3156 72.6271 41.9955 73.6982 41.3553 74.6398C40.7407 75.5814 39.8701 76.323 38.7434 76.8644ZM25.1842 69.3079V75.1342H31.3684C32.9049 75.1342 34.07 74.887 34.8638 74.3927C35.6577 73.8983 36.0546 73.1685 36.0546 72.2034C36.0546 71.2382 35.6577 70.5202 34.8638 70.0494C34.07 69.5551 32.9049 69.3079 31.3684 69.3079H25.1842ZM32.4439 85.4096C34.0828 85.4096 35.312 85.1624 36.1314 84.6681C36.9764 84.1737 37.399 83.4087 37.399 82.3729C37.399 80.3249 35.7473 79.3008 32.4439 79.3008H25.1842V85.4096H32.4439ZM68.1912 80.2895C68.1912 80.3602 68.1528 80.8545 68.076 81.7726H52.4426C52.7243 82.9496 53.3901 83.8795 54.44 84.5621C55.4899 85.2448 56.7959 85.5862 58.358 85.5862C59.4335 85.5862 60.3809 85.4449 61.2004 85.1624C62.0454 84.8564 62.8265 84.3856 63.5435 83.75L66.7316 86.928C64.7854 88.976 61.943 90 58.2043 90C55.874 90 53.8126 89.588 52.0201 88.7641C50.2276 87.9167 48.8448 86.7514 47.8717 85.2684C46.8986 83.7853 46.4121 82.1022 46.4121 80.2189C46.4121 78.3592 46.8858 76.6879 47.8333 75.2048C48.8064 73.6982 50.1252 72.533 51.7896 71.709C53.4797 70.8616 55.3619 70.4379 57.4361 70.4379C59.4591 70.4379 61.29 70.838 62.9289 71.6384C64.5678 72.4388 65.8481 73.5923 66.77 75.0989C67.7175 76.5819 68.1912 78.3121 68.1912 80.2895ZM57.4745 74.6045C56.1173 74.6045 54.9778 74.9576 54.0559 75.6638C53.134 76.3701 52.5707 77.3352 52.3658 78.5593H62.5448C62.3399 77.3588 61.7766 76.4054 60.8547 75.6992C59.9328 74.9694 58.8061 74.6045 57.4745 74.6045ZM92.423 80.2895C92.423 80.3602 92.3846 80.8545 92.3078 81.7726H76.6747C76.9564 82.9496 77.6222 83.8795 78.6721 84.5621C79.722 85.2448 81.028 85.5862 82.5901 85.5862C83.6656 85.5862 84.6127 85.4449 85.4322 85.1624C86.2772 84.8564 87.0582 84.3856 87.7753 83.75L90.9634 86.928C89.0172 88.976 86.1748 90 82.4364 90C80.1061 90 78.0447 89.588 76.2522 88.7641C74.4597 87.9167 73.0769 86.7514 72.1038 85.2684C71.1307 83.7853 70.6442 82.1022 70.6442 80.2189C70.6442 78.3592 71.1179 76.6879 72.0654 75.2048C73.0385 73.6982 74.3573 72.533 76.0217 71.709C77.7118 70.8616 79.594 70.4379 81.6682 70.4379C83.6912 70.4379 85.5218 70.838 87.1607 71.6384C88.7996 72.4388 90.0799 73.5923 91.0018 75.0989C91.9493 76.5819 92.423 78.3121 92.423 80.2895ZM81.7066 74.6045C80.3494 74.6045 79.2099 74.9576 78.288 75.6638C77.3661 76.3701 76.8028 77.3352 76.5979 78.5593H86.7766C86.5717 77.3588 86.0083 76.4054 85.0865 75.6992C84.1646 74.9694 83.0382 74.6045 81.7066 74.6045ZM108.474 65C110.856 65 112.917 65.3649 114.658 66.0946C116.425 66.8244 117.782 67.8602 118.73 69.202C119.677 70.5438 120.151 72.1328 120.151 73.9689C120.151 75.7815 119.677 77.3705 118.73 78.7359C117.782 80.0777 116.425 81.1135 114.658 81.8432C112.917 82.5494 110.856 82.9025 108.474 82.9025H103.058V89.7175H96.8355V65H108.474ZM108.128 78.2415C109.998 78.2415 111.419 77.8766 112.392 77.1469C113.365 76.3936 113.852 75.3343 113.852 73.9689C113.852 72.58 113.365 71.5207 112.392 70.791C111.419 70.0377 109.998 69.661 108.128 69.661H103.058V78.2415H108.128ZM129.894 73.2274C130.611 72.3093 131.571 71.6149 132.775 71.1441C134.004 70.6733 135.412 70.4379 137 70.4379V75.5226C136.334 75.4755 135.886 75.452 135.656 75.452C133.94 75.452 132.596 75.8992 131.622 76.7938C130.649 77.6648 130.163 78.983 130.163 80.7486V89.7175H124.171V70.7203H129.894V73.2274Z" fill="white"/>
<path d="M38.7434 112.763C40.2798 113.282 41.4834 114.155 42.354 115.384C43.2247 116.586 43.66 118.074 43.66 119.849C43.66 122.361 42.7381 124.3 40.8944 125.665C39.0763 127.003 36.4131 127.672 32.9049 127.672H19V99H32.1366C35.4144 99 37.9239 99.669 39.6652 101.007C41.4321 102.345 42.3156 104.161 42.3156 106.455C42.3156 107.847 41.9955 109.09 41.3553 110.182C40.7407 111.274 39.8701 112.135 38.7434 112.763ZM25.1842 103.997V110.756H31.3684C32.9049 110.756 34.07 110.469 34.8638 109.895C35.6577 109.322 36.0546 108.476 36.0546 107.356C36.0546 106.236 35.6577 105.403 34.8638 104.857C34.07 104.284 32.9049 103.997 31.3684 103.997H25.1842ZM32.4439 122.675C34.0828 122.675 35.312 122.388 36.1314 121.815C36.9764 121.242 37.399 120.354 37.399 119.153C37.399 116.777 35.7473 115.589 32.4439 115.589H25.1842V122.675H32.4439ZM68.1912 116.736C68.1912 116.818 68.1528 117.391 68.076 118.456H52.4426C52.7243 119.822 53.3901 120.9 54.44 121.692C55.4899 122.484 56.7959 122.88 58.358 122.88C59.4335 122.88 60.3809 122.716 61.2004 122.388C62.0454 122.033 62.8265 121.487 63.5435 120.75L66.7316 124.436C64.7854 126.812 61.943 128 58.2043 128C55.874 128 53.8126 127.522 52.0201 126.566C50.2276 125.583 48.8448 124.232 47.8717 122.511C46.8986 120.791 46.4121 118.839 46.4121 116.654C46.4121 114.497 46.8858 112.558 47.8333 110.838C48.8064 109.09 50.1252 107.738 51.7896 106.782C53.4797 105.799 55.3619 105.308 57.4361 105.308C59.4591 105.308 61.29 105.772 62.9289 106.701C64.5678 107.629 65.8481 108.967 66.77 110.715C67.7175 112.435 68.1912 114.442 68.1912 116.736ZM57.4745 110.141C56.1173 110.141 54.9778 110.551 54.0559 111.37C53.134 112.189 52.5707 113.309 52.3658 114.729H62.5448C62.3399 113.336 61.7766 112.23 60.8547 111.411C59.9328 110.564 58.8061 110.141 57.4745 110.141ZM92.423 116.736C92.423 116.818 92.3846 117.391 92.3078 118.456H76.6747C76.9564 119.822 77.6222 120.9 78.6721 121.692C79.722 122.484 81.028 122.88 82.5901 122.88C83.6656 122.88 84.6127 122.716 85.4322 122.388C86.2772 122.033 87.0582 121.487 87.7753 120.75L90.9634 124.436C89.0172 126.812 86.1748 128 82.4364 128C80.1061 128 78.0447 127.522 76.2522 126.566C74.4597 125.583 73.0769 124.232 72.1038 122.511C71.1307 120.791 70.6442 118.839 70.6442 116.654C70.6442 114.497 71.1179 112.558 72.0654 110.838C73.0385 109.09 74.3573 107.738 76.0217 106.782C77.7118 105.799 79.594 105.308 81.6682 105.308C83.6912 105.308 85.5218 105.772 87.1607 106.701C88.7996 107.629 90.0799 108.967 91.0018 110.715C91.9493 112.435 92.423 114.442 92.423 116.736ZM81.7066 110.141C80.3494 110.141 79.2099 110.551 78.288 111.37C77.3661 112.189 76.8028 113.309 76.5979 114.729H86.7766C86.5717 113.336 86.0083 112.23 85.0865 111.411C84.1646 110.564 83.0382 110.141 81.7066 110.141ZM108.474 99C110.856 99 112.917 99.4233 114.658 100.27C116.425 101.116 117.782 102.318 118.73 103.874C119.677 105.431 120.151 107.274 120.151 109.404C120.151 111.507 119.677 113.35 118.73 114.934C117.782 116.49 116.425 117.692 114.658 118.538C112.917 119.357 110.856 119.767 108.474 119.767H103.058V127.672H96.8355V99H108.474ZM108.128 114.36C109.998 114.36 111.419 113.937 112.392 113.09C113.365 112.217 113.852 110.988 113.852 109.404C113.852 107.793 113.365 106.564 112.392 105.718C111.419 104.844 109.998 104.407 108.128 104.407H103.058V114.36H108.128ZM129.894 108.544C130.611 107.479 131.571 106.673 132.775 106.127C134.004 105.581 135.412 105.308 137 105.308V111.206C136.334 111.152 135.886 111.124 135.656 111.124C133.94 111.124 132.596 111.643 131.622 112.681C130.649 113.691 130.163 115.22 130.163 117.268V127.672H124.171V105.636H129.894V108.544Z" fill="white"/>
<path opacity="0.2" d="M38.7434 40.339C40.2798 40.8041 41.4834 41.5876 42.354 42.6893C43.2247 43.7665 43.66 45.1008 43.66 46.6921C43.66 48.9444 42.7381 50.6827 40.8944 51.9068C39.0763 53.1064 36.4131 53.7062 32.9049 53.7062H19V28H32.1366C35.4144 28 37.9239 28.5998 39.6652 29.7994C41.4321 30.9991 42.3156 32.6271 42.3156 34.6836C42.3156 35.9322 41.9955 37.0461 41.3553 38.0254C40.7407 39.0047 39.8701 39.7759 38.7434 40.339ZM25.1842 32.4802V38.5395H31.3684C32.9049 38.5395 34.07 38.2825 34.8638 37.7684C35.6577 37.2542 36.0546 36.4953 36.0546 35.4915C36.0546 34.4878 35.6577 33.7411 34.8638 33.2514C34.07 32.7373 32.9049 32.4802 31.3684 32.4802H25.1842ZM32.4439 49.226C34.0828 49.226 35.312 48.9689 36.1314 48.4548C36.9764 47.9407 37.399 47.145 37.399 46.0678C37.399 43.9379 35.7473 42.8729 32.4439 42.8729H25.1842V49.226H32.4439ZM68.1912 43.9011C68.1912 43.9746 68.1528 44.4887 68.076 45.4435H52.4426C52.7243 46.6676 53.3901 47.6347 54.44 48.3446C55.4899 49.0546 56.7959 49.4096 58.358 49.4096C59.4335 49.4096 60.3809 49.2627 61.2004 48.9689C62.0454 48.6507 62.8265 48.161 63.5435 47.5L66.7316 50.8051C64.7854 52.935 61.943 54 58.2043 54C55.874 54 53.8126 53.5716 52.0201 52.7147C50.2276 51.8333 48.8448 50.6215 47.8717 49.0791C46.8986 47.5367 46.4121 45.7863 46.4121 43.8277C46.4121 41.8936 46.8858 40.1554 47.8333 38.613C48.8064 37.0461 50.1252 35.8343 51.7896 34.9774C53.4797 34.096 55.3619 33.6554 57.4361 33.6554C59.4591 33.6554 61.29 34.0716 62.9289 34.904C64.5678 35.7363 65.8481 36.936 66.77 38.5028C67.7175 40.0452 68.1912 41.8446 68.1912 43.9011ZM57.4745 37.9887C56.1173 37.9887 54.9778 38.3559 54.0559 39.0904C53.134 39.8249 52.5707 40.8286 52.3658 42.1017H62.5448C62.3399 40.8531 61.7766 39.8616 60.8547 39.1271C59.9328 38.3682 58.8061 37.9887 57.4745 37.9887ZM92.423 43.9011C92.423 43.9746 92.3846 44.4887 92.3078 45.4435H76.6747C76.9564 46.6676 77.6222 47.6347 78.6721 48.3446C79.722 49.0546 81.028 49.4096 82.5901 49.4096C83.6656 49.4096 84.6127 49.2627 85.4322 48.9689C86.2772 48.6507 87.0582 48.161 87.7753 47.5L90.9634 50.8051C89.0172 52.935 86.1748 54 82.4364 54C80.1061 54 78.0447 53.5716 76.2522 52.7147C74.4597 51.8333 73.0769 50.6215 72.1038 49.0791C71.1307 47.5367 70.6442 45.7863 70.6442 43.8277C70.6442 41.8936 71.1179 40.1554 72.0654 38.613C73.0385 37.0461 74.3573 35.8343 76.0217 34.9774C77.7118 34.096 79.594 33.6554 81.6682 33.6554C83.6912 33.6554 85.5218 34.0716 87.1607 34.904C88.7996 35.7363 90.0799 36.936 91.0018 38.5028C91.9493 40.0452 92.423 41.8446 92.423 43.9011ZM81.7066 37.9887C80.3494 37.9887 79.2099 38.3559 78.288 39.0904C77.3661 39.8249 76.8028 40.8286 76.5979 42.1017H86.7766C86.5717 40.8531 86.0083 39.8616 85.0865 39.1271C84.1646 38.3682 83.0382 37.9887 81.7066 37.9887ZM108.474 28C110.856 28 112.917 28.3795 114.658 29.1384C116.425 29.8974 117.782 30.9746 118.73 32.3701C119.677 33.7655 120.151 35.4181 120.151 37.3277C120.151 39.2128 119.677 40.8653 118.73 42.2853C117.782 43.6808 116.425 44.758 114.658 45.517C112.917 46.2514 110.856 46.6186 108.474 46.6186H103.058V53.7062H96.8355V28H108.474ZM108.128 41.7712C109.998 41.7712 111.419 41.3917 112.392 40.6328C113.365 39.8493 113.852 38.7476 113.852 37.3277C113.852 35.8832 113.365 34.7815 112.392 34.0226C111.419 33.2392 109.998 32.8475 108.128 32.8475H103.058V41.7712H108.128ZM129.894 36.5565C130.611 35.6017 131.571 34.8795 132.775 34.3898C134.004 33.9002 135.412 33.6554 137 33.6554V38.9435C136.334 38.8945 135.886 38.8701 135.656 38.8701C133.94 38.8701 132.596 39.3352 131.622 40.2655C130.649 41.1714 130.163 42.5424 130.163 44.3785V53.7062H124.171V33.9492H129.894V36.5565Z" fill="white"/>
</svg>
